<svg version="1.1" id="Layer_1" xmlns="http://www.w3.org/2000/svg" xmlns:xlink="http://www.w3.org/1999/xlink" x="0px" y="0px"
	 width="100%" viewBox="0 0 573 573" enable-background="new 0 0 573 573" xml:space="preserve">
<path fill="none" opacity="1.000000" stroke="#000000" stroke-linecap="round" stroke-linejoin="round" stroke-width="6.000000"
	d="
M60.500000,103.499992 
	C48.913357,103.744911 37.326717,103.989830 25.774590,104.234016 
	C23.956161,123.903389 25.132442,515.369446 26.972908,520.425598 
	C28.954973,521.206970 30.987925,520.997131 33.000000,520.997253 
	C102.000000,521.000549 171.000031,521.025452 239.999893,520.924500 
	C243.434372,520.919434 245.230194,522.007935 247.104401,524.933105 
	C255.465256,537.982178 267.412140,545.366455 282.994537,547.050659 
	C304.267700,549.350098 320.057404,541.002014 330.905243,522.943054 
	C332.379456,520.488892 334.145386,521.029236 336.000061,521.025696 
	C357.333313,520.985352 378.666656,521.000000 400.000000,521.000000 
	C448.166656,521.000000 496.333344,521.001160 544.500000,520.998779 
	C551.500000,520.998413 551.500000,520.990540 551.500000,514.000000 
	C551.500000,379.333344 551.482422,244.666656 551.550598,110.000023 
	C551.554077,103.097054 550.392639,104.022377 545.500244,103.975899 
	C537.166077,103.896729 528.833313,103.666664 520.500000,103.500000 
"/>
<path fill="none" opacity="1.000000" stroke="#000000" stroke-linecap="round" stroke-linejoin="round" stroke-width="4.000000"
	d="
M60.500000,119.000008 
	C55.166668,118.833336 49.829758,118.738228 44.501404,118.471947 
	C41.522003,118.323044 40.207020,119.527260 40.490757,122.500885 
	C40.553795,123.161530 40.500000,123.833336 40.500000,124.500000 
	C40.500000,249.833328 40.497734,375.166656 40.526970,500.500000 
	C40.527317,501.994446 40.009480,503.591553 40.933365,505.066620 
	C42.408459,505.990509 44.005466,505.471863 45.500015,505.472748 
	C101.500000,505.505035 157.500000,505.503387 213.500000,505.486694 
	C215.598831,505.486084 217.890625,506.062500 219.500000,504.000000 
"/>
<path fill="none" opacity="1.000000" stroke="#000000" stroke-linecap="round" stroke-linejoin="round" stroke-width="4.000000"
	d="
M520.500000,118.500000 
	C525.672058,118.500000 530.844055,118.500000 536.250000,118.500000 
	C536.250000,247.666672 536.250000,376.333344 536.250000,504.951782 
	C534.591553,505.990509 532.994568,505.471863 531.500000,505.472748 
	C475.833344,505.505066 420.166656,505.503418 364.500000,505.486725 
	C362.401154,505.486084 360.109375,506.062500 358.500000,504.000000 
"/>
<path fill="none" opacity="1.000000" stroke="#000000" stroke-linecap="round" stroke-linejoin="round" stroke-width="5.000000"
	d="
M508.500000,90.500000 
	C507.656647,92.271812 508.013733,94.161346 508.013519,96.000000 
	C507.998566,217.500000 508.000000,339.000000 508.000000,460.514801 
	C502.341949,463.551727 495.969604,462.555634 489.975281,463.301331 
	C478.104156,464.778137 466.268463,466.217834 454.475342,468.364624 
	C440.048309,470.990875 425.759125,474.110809 411.482269,477.423615 
	C391.233948,482.122009 371.596191,488.754272 352.033691,495.596344 
	C341.179260,499.392792 330.595123,504.001892 320.037140,508.585510 
	C316.108002,510.291290 311.143646,508.597565 308.000000,512.500000 
"/>
<path fill="none" opacity="1.000000" stroke="#000000" stroke-linecap="round" stroke-linejoin="round" stroke-width="4.000000"
	d="
M73.000000,90.000000 
	C73.000000,213.667114 73.000000,337.334229 73.000000,461.293640 
	C83.802986,462.429321 93.725456,463.013763 103.481293,464.614044 
	C115.697975,466.617981 127.867249,468.994659 140.035324,471.314697 
	C160.356934,475.189362 180.273911,480.421173 199.993851,486.519897 
	C219.781204,492.639496 239.055618,500.165375 257.931061,508.653290 
	C260.489227,509.803650 262.634003,509.395294 265.000000,509.500000 
"/>
<path fill="none" opacity="1.000000" stroke="#000000" stroke-linecap="round" stroke-linejoin="round" stroke-width="5.000000"
	d="
M497.500000,88.500000 
	C501.988586,88.974480 506.453003,89.590118 511.005920,89.049881 
	C513.389038,88.767097 515.833374,89.000000 519.125000,89.000000 
	C519.125000,216.832901 519.125000,344.166290 519.125000,471.604706 
	C509.013855,472.783417 499.498291,473.823151 490.002258,475.017944 
	C478.962189,476.406982 467.950897,477.930664 456.972351,479.841034 
	C447.309418,481.522461 437.641479,483.185608 427.999237,484.996002 
	C409.147675,488.535461 390.381287,492.654602 372.063110,498.208130 
	C355.175507,503.327972 337.970551,507.490601 321.453613,513.880127 
	C318.201385,515.138245 315.839325,515.695068 315.279327,519.971130 
	C314.777954,523.799500 310.529297,525.452393 307.474945,527.461914 
	C294.242859,536.167480 274.631500,534.894531 264.498016,523.001709 
	C263.135895,521.403015 261.822845,520.132141 261.734894,517.508911 
	C261.669159,515.547302 258.692078,514.175659 256.487091,513.545105 
	C244.590225,510.143158 233.230408,504.817932 220.750000,503.500000 
"/>
<path fill="none" opacity="1.000000" stroke="#000000" stroke-linecap="round" stroke-linejoin="round" stroke-width="5.000000"
	d="
M474.500000,65.500000 
	C479.637878,66.559059 484.835419,65.762321 490.000397,65.990883 
	C492.106720,66.084091 494.260986,65.714066 496.586273,66.966446 
	C495.702667,75.157837 497.753265,83.611946 495.600281,92.025658 
	C495.090179,94.019150 495.978333,96.333290 495.979065,98.500008 
	C496.004120,175.333328 496.301483,252.168350 495.873383,328.999298 
	C495.657928,367.666656 495.613922,406.333344 495.589020,445.000061 
	C495.586243,449.322144 494.281494,450.423462 490.009125,450.662720 
	C482.642883,451.075256 475.251251,452.099426 468.016785,453.581970 
	C452.096863,456.844391 436.191498,460.105621 420.449585,464.311310 
	C400.507233,469.639221 381.063965,476.207336 362.008667,484.021118 
	C346.472382,490.391846 331.061340,497.046875 316.481110,505.467316 
	C314.778320,506.450714 313.486237,507.571289 313.000000,509.500000 
"/>
<path fill="none" opacity="1.000000" stroke="#000000" stroke-linecap="round" stroke-linejoin="round" stroke-width="5.000000"
	d="
M106.500000,65.500000 
	C101.362122,66.559059 96.164436,65.758133 90.999680,65.992882 
	C88.909126,66.087898 86.782425,65.696976 84.449699,66.990799 
	C84.694458,76.001221 84.717430,85.496857 84.873482,95.002075 
	C85.259171,118.495743 85.000000,142.000000 85.000000,165.500000 
	C85.000000,222.166672 84.976730,278.833374 85.022453,335.499969 
	C85.030258,345.166779 85.778130,354.850342 85.409386,364.496521 
	C84.587357,386.000305 85.242409,407.500488 85.033852,429.000336 
	C84.977287,434.831512 85.397095,440.665894 85.467392,446.500397 
	C85.494034,448.711945 86.216530,450.327301 88.502159,450.463776 
	C97.952553,451.027985 107.204071,452.980957 116.484184,454.591125 
	C127.717529,456.540192 138.945053,458.734863 149.976898,461.589294 
	C173.483337,467.671295 196.495682,475.443085 218.937210,484.652985 
	C232.980820,490.416443 246.651123,497.162109 260.066772,504.375793 
	C263.819214,506.393524 265.273529,510.709106 269.468475,512.095337 
	C271.610657,512.803284 273.286469,512.984314 275.000000,511.500000 
"/>
<path fill="none" opacity="1.000000" stroke="#000000" stroke-linecap="round" stroke-linejoin="round" stroke-width="4.000000"
	d="
M97.500000,74.500000 
	C97.500000,196.000229 97.500000,317.500458 97.500000,439.068665 
	C129.976898,443.458435 160.907684,452.028198 190.964417,463.592468 
	C216.945160,473.588562 241.563171,486.461334 264.914185,501.632111 
	C267.283539,503.171387 269.354767,504.039978 272.000000,504.000000 
"/>
<path fill="none" opacity="1.000000" stroke="#000000" stroke-linecap="round" stroke-linejoin="round" stroke-width="4.000000"
	d="
M483.500000,74.500000 
	C483.500000,193.000000 483.500000,311.500000 483.500000,430.000000 
	C483.500000,439.167175 483.513702,439.269073 474.497498,440.481323 
	C444.529510,444.510651 415.688538,452.919983 387.540253,463.605988 
	C362.078064,473.272247 338.116272,486.129944 315.086884,500.637939 
	C312.710419,502.135101 310.645233,503.039978 308.000000,503.000000 
"/>
<path fill="none" opacity="1.000000" stroke="#000000" stroke-linecap="round" stroke-linejoin="round" stroke-width="5.000000"
	d="
M289.000000,132.750015 
	C293.833344,128.500015 298.737488,124.327469 303.487427,119.986267 
	C321.565216,103.464134 341.320770,89.183662 362.555664,77.097801 
	C382.766235,65.594933 404.015594,56.389870 426.459717,49.861504 
	C440.633728,45.738682 454.900452,42.462845 469.499603,40.497120 
	C471.810516,40.185963 472.962830,41.188477 472.997467,43.500038 
	C473.012482,44.499813 473.000000,45.500000 473.000000,46.500000 
	C473.000000,172.833328 473.003113,299.166656 472.966064,425.500000 
	C472.965576,427.156128 473.691559,428.935822 472.037811,430.648560 
	C450.101501,434.406036 428.003235,439.288635 406.448120,446.852142 
	C382.265015,455.337738 359.318359,466.145630 337.486542,479.477966 
	C329.582306,484.304962 322.150543,489.816498 314.433197,494.898560 
	C308.594482,498.743500 306.090332,504.208801 303.968750,510.611511 
	C307.888885,512.704102 311.444427,514.602051 315.000000,516.500000 
"/>
<path fill="none" opacity="1.000000" stroke="#000000" stroke-linecap="round" stroke-linejoin="round" stroke-width="5.000000"
	d="
M288.000000,186.000000 
	C288.691162,184.059631 289.049591,182.104691 289.038422,179.999802 
	C288.964264,166.000183 288.969177,151.999878 289.025665,138.000107 
	C289.037140,135.156540 288.363495,133.119858 286.101196,130.896988 
	C270.314850,115.385666 253.410919,101.248665 234.969101,89.046707 
	C209.188538,71.989105 181.635086,58.493088 151.986496,49.544731 
	C137.947495,45.307560 123.667366,42.025120 109.000000,40.750000 
	C108.833336,40.750000 108.666664,40.750000 108.500000,40.750000 
	C108.583336,40.833332 108.752388,40.968426 108.737778,40.992619 
	C107.692337,42.723755 108.005440,44.638424 108.005348,46.500000 
	C107.999451,172.833328 107.996887,299.166656 108.033943,425.500000 
	C108.034431,427.156128 107.308434,428.935822 108.959801,430.646088 
	C136.765182,435.647034 164.441376,442.812897 191.011993,453.971436 
	C218.485962,465.509338 244.306366,479.862823 268.037109,497.951324 
	C272.324829,501.219513 273.471802,505.882446 275.398987,510.692749 
	C284.090546,514.853577 293.263672,514.414001 302.510254,511.028015 
	C303.098114,510.812775 303.833344,511.000000 304.500000,511.000000 
"/>
<path fill="none" opacity="1.000000" stroke="#000000" stroke-linecap="round" stroke-linejoin="round" stroke-width="5.000000"
	d="
M83.500000,88.500000 
	C76.552704,89.940094 69.463921,88.409058 61.750000,89.348801 
	C61.750000,216.833328 61.750000,344.166656 61.750000,471.711151 
	C71.810081,472.861969 81.203667,473.621948 90.487022,475.082489 
	C100.825409,476.709015 111.205757,478.066406 121.535309,479.788177 
	C131.375885,481.428436 141.214310,483.077026 150.994186,485.029144 
	C171.184219,489.059265 191.164688,493.989319 210.992096,499.528290 
	C213.939819,500.351746 217.316833,500.254333 219.500000,503.000000 
"/>
<path fill="none" opacity="1.000000" stroke="#000000" stroke-linecap="round" stroke-linejoin="round" stroke-width="5.000000"
	d="
M287.500000,186.000000 
	C280.367859,183.945450 274.812317,179.031082 268.528076,175.450745 
	C257.427856,169.126602 246.558929,162.397614 235.485748,156.024750 
	C220.098373,147.169022 191.886887,151.328659 183.076538,171.533371 
	C181.805511,174.448242 180.966949,177.641144 180.968750,181.000015 
	C181.009445,256.666656 180.850342,332.333893 181.128510,407.999542 
	C181.182983,422.819122 191.957306,434.189148 207.992065,438.033112 
	C220.933456,441.135559 232.162888,437.355316 243.040802,430.565369 
	C256.034454,422.454834 269.379822,414.910217 282.490509,406.984283 
	C311.354462,389.534943 340.119171,371.921021 369.024506,354.540771 
	C379.851501,348.030731 390.619904,341.391174 401.587738,335.154327 
	C414.396820,327.870483 420.934845,317.314117 423.110168,303.016754 
	C425.663849,286.232452 420.884033,272.104980 408.348785,261.173401 
	C402.048889,255.679474 394.218872,251.914185 386.990601,247.515427 
	C361.181274,231.809296 335.301910,216.218124 309.520050,200.467194 
	C302.225220,196.010590 294.401123,192.342346 288.000000,186.500000 
"/>
<path fill="none" opacity="1.000000" stroke="#000000" stroke-linecap="round" stroke-linejoin="round" stroke-width="5.000000"
	d="
M289.500000,251.500000 
	C285.562225,246.185898 278.924744,244.885315 273.943787,241.073441 
	C270.400177,238.361526 266.474518,236.050644 262.473785,234.052536 
	C250.024307,227.834808 234.496094,232.589142 234.163651,250.003128 
	C233.578415,280.658600 233.670746,311.338501 234.152283,341.997620 
	C234.362686,355.394073 248.141022,363.767273 260.397675,357.305908 
	C270.623138,351.915375 280.290192,345.296021 290.222992,339.373993 
	C300.812347,333.060547 311.438080,326.597229 322.469666,320.940826 
	C327.646790,318.286316 332.391754,314.798798 337.521179,312.039337 
	C350.652832,304.974915 350.073669,286.501556 338.480316,279.532745 
	C323.561218,270.564819 308.483459,261.861053 293.532410,252.945618 
	C292.377350,252.256866 291.325348,251.629715 290.000000,251.500000 
"/>
<path fill="none" opacity="1.000000" stroke="#000000" stroke-linecap="round" stroke-linejoin="round" stroke-width="5.000000"
	d="
M288.000000,405.500000 
	C289.079346,407.197693 289.012909,409.089172 289.011902,411.000000 
	C288.995239,443.000000 289.008972,475.000000 288.978577,506.999969 
	C288.976685,509.000122 288.666687,511.000000 288.500000,513.000000 
"/>
<path fill="none" opacity="1.000000" stroke="#000000" stroke-linecap="round" stroke-linejoin="round" stroke-width="5.000000"
	d="
M289.000000,252.000000 
	C288.067566,254.666672 289.066162,257.331940 289.055664,260.000214 
	C288.960663,284.166504 288.999756,308.333344 289.000397,332.500000 
	C289.000458,334.555023 288.763458,336.650543 290.000000,338.500000 
"/>
</svg>